<?xml version="1.0" encoding="utf-8"?>
<!-- Generator: Adobe Illustrator 24.1.0, SVG Export Plug-In . SVG Version: 6.00 Build 0)  -->
<svg version="1.1" id="Calque_1" xmlns="http://www.w3.org/2000/svg" xmlns:xlink="http://www.w3.org/1999/xlink" x="0px" y="0px"
	 viewBox="0 0 1700.86 1417.32" style="enable-background:new 0 0 1700.86 1417.32;" xml:space="preserve">
<style type="text/css">
	.st0{fill:#B6CBD8;stroke:#5A9ED6;stroke-miterlimit:10;}
	.st1{fill:none;stroke:#5A9ED6;stroke-width:14;stroke-miterlimit:10;}
	.st2{fill:#6C8A99;}
	.st3{fill:#FFFFFF;}
	.st4{fill:#B6CBD8;stroke:#6C8A99;stroke-width:12;stroke-miterlimit:10;}
	.st5{fill:#5A9ED6;}
	.st6{fill:#F6F6F6;}
</style>
<polygon class="st4" points="292.44,428.59 292.44,1058.02 837.54,1372.74 1382.64,1058.02 1382.64,428.59 837.54,113.88 "/>
<polygon class="st2" points="311.59,439.65 311.59,1046.96 837.54,1350.62 1363.49,1046.96 1363.49,439.65 837.54,135.99 "/>
<g>
	<g>
		<path class="st3" d="M389.75,769.11v-89.84h-32.06v-12.49h47.53v103.44c0,13.05,7.08,18.64,17.89,18.64
			c5.22,0,10.81-1.3,16.96-4.1l3.91,11.56c-8.39,3.54-14.35,5.41-24.23,5.41C400.37,801.73,389.75,790.55,389.75,769.11z"/>
		<path class="st3" d="M527.49,721.4h-41.94v-12.49h57.41v90.58h-15.47V721.4z M521.34,677.97c0-7.08,5.22-11.93,12.3-11.93
			c7.08,0,12.3,4.85,12.3,11.93c0,7.27-5.22,11.93-12.3,11.93C526.56,689.9,521.34,685.24,521.34,677.97z"/>
		<path class="st3" d="M602.97,708.91h15.84l20.88,51.26c3.54,9.13,6.9,18.08,10.06,26.84h0.75c3.17-8.76,6.15-17.71,9.88-26.84
			l20.88-51.26h14.91l-37.65,90.58h-17.33L602.97,708.91z"/>
		<path class="st3" d="M731.21,754.02c0-29.45,21.99-47.34,46.22-47.34c26.09,0,41.38,16.96,41.38,42.5c0,3.54-0.37,6.9-0.75,9.32
			h-76.6v-11.93h67.47l-3.91,4.29c0-21.43-10.62-32.06-27.21-32.06c-16.77,0-31.31,12.67-31.31,35.23
			c0,23.49,15.28,35.41,35.41,35.41c10.81,0,19.38-3.36,27.59-8.57l5.59,10.06c-8.95,5.96-20.5,10.81-35.04,10.81
			C752.83,801.73,731.21,784.21,731.21,754.02z"/>
		<path class="st3" d="M858.32,754.39c0-30.38,23.11-47.71,50.51-47.71c14.72,0,25.54,5.96,32.99,13.23l-7.64,9.88
			c-7.46-6.34-15.28-10.25-24.79-10.25c-20.88,0-35.23,13.98-35.23,34.85c0,20.69,14.17,34.48,34.85,34.48
			c11.18,0,20.5-5.03,27.96-11.37l6.9,10.06c-10.06,8.95-22.55,14.17-35.97,14.17C879.57,801.73,858.32,784.4,858.32,754.39z"/>
		<path class="st3" d="M979.47,754.39c0-30.38,20.88-47.71,44.73-47.71s44.73,17.33,44.73,47.71c0,30.01-20.88,47.34-44.73,47.34
			S979.47,784.4,979.47,754.39z M1053.1,754.39c0-20.88-11.56-34.85-28.89-34.85c-17.33,0-28.89,13.98-28.89,34.85
			c0,20.69,11.56,34.48,28.89,34.48C1041.54,788.87,1053.1,775.08,1053.1,754.39z"/>
		<path class="st3" d="M1104.35,754.39c0-29.45,19.57-47.71,41-47.71c10.81,0,19.2,4.29,27.21,11.56h0.37l-0.75-16.59v-34.85h15.47
			V799.5h-12.67l-1.3-11.93h-0.56c-7.46,7.64-18.27,14.17-29.64,14.17C1120.01,801.73,1104.35,784.58,1104.35,754.39z
			 M1172.2,775.27v-45.11c-8.2-7.64-15.84-10.44-23.67-10.44c-15.66,0-28.33,13.79-28.33,34.48c0,21.62,10.06,34.48,26.65,34.48
			C1155.8,788.68,1164.18,784.21,1172.2,775.27z"/>
		<path class="st3" d="M1230.72,754.02c0-29.45,21.99-47.34,46.22-47.34c26.09,0,41.38,16.96,41.38,42.5c0,3.54-0.37,6.9-0.75,9.32
			h-76.6v-11.93h67.47l-3.91,4.29c0-21.43-10.62-32.06-27.21-32.06c-16.77,0-31.31,12.67-31.31,35.23
			c0,23.49,15.28,35.41,35.41,35.41c10.81,0,19.38-3.36,27.58-8.57l5.59,10.06c-8.95,5.96-20.5,10.81-35.04,10.81
			C1252.34,801.73,1230.72,784.21,1230.72,754.02z"/>
	</g>
</g>
<g>
	<path class="st3" d="M882.04,416.6c-26.71,10.48-49.47,31.16-61.83,59.54l9.83,4.29c11.25-25.68,31.77-44.32,55.93-53.79
		c24.16-9.48,51.89-9.76,77.55,1.45l4.37-9.86C939.5,405.83,908.75,406.12,882.04,416.6z M893,447.1
		c-18.24,7.15-33.76,21.25-42.2,40.58l9.86,4.37c14.57-33.37,53.28-48.55,86.65-33.98l4.3-9.92
		C932.28,439.71,911.28,439.93,893,447.1z M906.21,477.09c-9.77,3.83-18.09,11.35-22.63,21.68l9.94,4.34
		c6.68-15.38,24.38-22.32,39.77-15.6l4.3-9.92C927.23,473.1,916.02,473.24,906.21,477.09z M917.48,506.97
		c-2.79,1.09-4.14,4.2-3.05,6.99c1.09,2.79,4.2,4.14,6.99,3.05s4.14-4.2,3.05-6.99C923.37,507.24,920.26,505.88,917.48,506.97z"/>
	<path class="st3" d="M1200.37,475.56c23.37,16.65,40.42,42.24,45.51,72.78l-10.58,1.78c-4.67-27.64-20.06-50.71-41.19-65.77
		c-21.14-15.06-47.96-22.06-75.58-17.43l-1.84-10.63C1147.24,451.16,1177,458.91,1200.37,475.56z M1182.33,502.49
		c15.96,11.37,27.59,28.81,31.08,49.61l-10.63,1.85c-6.03-35.9-39.9-60.03-75.8-54l-1.76-10.67
		C1146.02,485.78,1166.34,491.09,1182.33,502.49z M1162.23,528.37c8.54,6.09,14.79,15.4,16.69,26.53l-10.69,1.8
		c-2.75-16.55-18.23-27.57-34.8-24.79l-1.76-10.67C1142.81,519.39,1153.66,522.26,1162.23,528.37z M1144.05,554.62
		c2.44,1.74,3,5.09,1.26,7.52c-1.74,2.44-5.09,3-7.52,1.26c-2.44-1.74-3-5.09-1.26-7.52
		C1138.26,553.45,1141.61,552.89,1144.05,554.62z"/>
	<path class="st3" d="M1141.45,549.53c-5.01,0-9.07,3.82-9.07,8.53c0,1.53,0.44,3.03,1.28,4.34l-76.76,128.4
		c-9.66-5.7-21.06-9.02-33.32-9.02c-10.58,0-20.51,2.5-29.25,6.84l-68.04-172.06c1.34-1.53,2.08-3.45,2.08-5.43
		c0-4.71-4.06-8.53-9.07-8.53c-5.01,0-9.07,3.82-9.07,8.53c0,4.16,3.19,7.71,7.55,8.41l68.67,173.67
		c-13.18,9.1-22.48,22.92-25.2,38.8h8.94c4.73-23.74,26.74-41.69,53.38-41.69c26.64,0,48.65,17.95,53.38,41.69h8.94
		c-2.47-14.4-10.37-27.08-21.64-36.11l77.29-129.3c4.97-0.05,8.97-3.86,8.97-8.53C1150.52,553.35,1146.46,549.53,1141.45,549.53z"/>
</g>
<g>
	<path class="st3" d="M1165.26,1091.91c26.71-10.47,49.47-31.16,61.83-59.54l-9.83-4.29c-11.25,25.68-31.77,44.32-55.93,53.79
		c-24.16,9.48-51.89,9.76-77.55-1.45l-4.37,9.86C1107.8,1102.68,1138.55,1102.39,1165.26,1091.91z M1154.3,1061.41
		c18.24-7.15,33.76-21.25,42.2-40.58l-9.86-4.37c-14.57,33.37-53.28,48.55-86.65,33.98l-4.3,9.92
		C1115.02,1068.8,1136.02,1068.58,1154.3,1061.41z M1141.09,1031.42c9.77-3.83,18.09-11.35,22.63-21.68l-9.94-4.34
		c-6.68,15.38-24.38,22.32-39.77,15.6l-4.3,9.92C1120.07,1035.41,1131.28,1035.27,1141.09,1031.42z M1129.82,1001.54
		c2.79-1.09,4.14-4.2,3.05-6.99c-1.09-2.79-4.2-4.14-6.99-3.05c-2.79,1.09-4.14,4.2-3.05,6.99
		C1123.93,1001.27,1127.04,1002.63,1129.82,1001.54z"/>
	<path class="st3" d="M846.93,1032.95c-23.37-16.65-40.42-42.24-45.51-72.78l10.58-1.78c4.67,27.64,20.06,50.71,41.19,65.77
		c21.14,15.06,47.96,22.06,75.58,17.43l1.84,10.63C900.06,1057.35,870.3,1049.6,846.93,1032.95z M864.97,1006.02
		c-15.96-11.37-27.59-28.81-31.08-49.61l10.63-1.84c6.03,35.9,39.9,60.03,75.8,54l1.76,10.67
		C901.28,1022.73,880.96,1017.41,864.97,1006.02z M885.07,980.14c-8.54-6.09-14.79-15.4-16.69-26.53l10.69-1.8
		c2.75,16.55,18.23,27.57,34.8,24.79l1.76,10.67C904.49,989.11,893.64,986.25,885.07,980.14z M903.25,953.88
		c-2.44-1.74-3-5.09-1.26-7.52c1.74-2.44,5.09-3,7.52-1.26c2.44,1.74,3,5.09,1.26,7.52C909.04,955.06,905.69,955.62,903.25,953.88z"
		/>
	<path class="st3" d="M905.85,958.97c5.01,0,9.07-3.82,9.07-8.53c0-1.53-0.44-3.03-1.28-4.34l76.76-128.4
		c9.66,5.7,21.06,9.02,33.32,9.02c10.58,0,20.51-2.5,29.25-6.84l68.04,172.06c-1.34,1.53-2.08,3.45-2.08,5.43
		c0,4.71,4.06,8.53,9.07,8.53s9.07-3.82,9.07-8.53c0-4.16-3.19-7.71-7.55-8.41l-68.67-173.67c13.18-9.1,22.48-22.92,25.2-38.8h-8.94
		c-4.73,23.74-26.74,41.69-53.38,41.69s-48.65-17.95-53.38-41.69h-8.94c2.47,14.4,10.37,27.08,21.64,36.11l-77.29,129.3
		c-4.97,0.05-8.97,3.86-8.97,8.53C896.79,955.15,900.85,958.97,905.85,958.97z"/>
</g>
</svg>
